<?xml version="1.0" encoding="UTF-8" standalone="no"?>
<!-- Created with Inkscape (http://www.inkscape.org/) -->

<svg
   width="210mm"
   height="297mm"
   viewBox="0 0 210 297"
   version="1.1"
   id="svg5"
   inkscape:version="1.1 (c68e22c387, 2021-05-23)"
   sodipodi:docname="logo_work.svg"
   xmlns:inkscape="http://www.inkscape.org/namespaces/inkscape"
   xmlns:sodipodi="http://sodipodi.sourceforge.net/DTD/sodipodi-0.dtd"
   xmlns="http://www.w3.org/2000/svg"
   xmlns:svg="http://www.w3.org/2000/svg">
  <sodipodi:namedview
     id="namedview7"
     pagecolor="#505050"
     bordercolor="#eeeeee"
     borderopacity="1"
     inkscape:pageshadow="0"
     inkscape:pageopacity="0"
     inkscape:pagecheckerboard="0"
     inkscape:document-units="mm"
     showgrid="true"
     inkscape:lockguides="true"
     inkscape:zoom="1.5287037"
     inkscape:cx="253.15566"
     inkscape:cy="746.05694"
     inkscape:window-width="1920"
     inkscape:window-height="1017"
     inkscape:window-x="-8"
     inkscape:window-y="-8"
     inkscape:window-maximized="1"
     inkscape:current-layer="layer1">
    <inkscape:grid
       type="xygrid"
       id="grid931"
       spacingx="5"
       spacingy="5" />
  </sodipodi:namedview>
  <defs
     id="defs2" />
  <g
     inkscape:label="Calque 1"
     inkscape:groupmode="layer"
     id="layer1">
    <path
       style="fill:#ffffff;stroke:#000000;stroke-width:1.265;stroke-linecap:butt;stroke-linejoin:miter;stroke-opacity:1;stroke-miterlimit:4;stroke-dasharray:none"
       d="m 10,160 c 0,0 0,-10 10,-10 10,0 49.999999,0 49.999999,0 H 120 c 0,0 10,0 10,10 0,10 0,50 0,50 0,0 0,10 -10,10 -10,0 -100,0 -100,0 0,0 -10,0 -10,-10 0,-10 0,-50 0,-50"
       id="path1232"
       inkscape:export-filename="C:\Users\kduclos\Downloads\CV_2-master\CV_2-master\img\logo_work.png"
       inkscape:export-xdpi="90"
       inkscape:export-ydpi="90" />
    <path
       style="fill:#ffffff;stroke:#000000;stroke-width:1.265;stroke-linecap:butt;stroke-linejoin:miter;stroke-opacity:1;stroke-miterlimit:4;stroke-dasharray:none"
       d="m 30,170 v 30 c 0,0 0,10 9.999999,10 C 50,210 100,210 100,210 c 0,0 10,0 10,-10 0,-10 0,-30 0,-30 H 30"
       id="path1302"
       inkscape:export-filename="C:\Users\kduclos\Downloads\CV_2-master\CV_2-master\img\logo_work.png"
       inkscape:export-xdpi="90"
       inkscape:export-ydpi="90" />
    <path
       style="fill:#ffffff;stroke:#000000;stroke-width:1.265;stroke-linecap:butt;stroke-linejoin:miter;stroke-opacity:1;stroke-miterlimit:4;stroke-dasharray:none"
       d="M 10,170 69.999999,180 130,170 v -10 c 0,0 0,-10 -10,-10 -10,0 -100,0 -100,0 0,0 -10,0 -10,10 0,10 0,10 0,10"
       id="path1267"
       inkscape:export-filename="C:\Users\kduclos\Downloads\CV_2-master\CV_2-master\img\logo_work.png"
       inkscape:export-xdpi="90"
       inkscape:export-ydpi="90" />
    <path
       style="fill:#ffffff;stroke:#000000;stroke-width:1.265;stroke-linecap:butt;stroke-linejoin:miter;stroke-opacity:1;stroke-miterlimit:4;stroke-dasharray:none"
       d="m 64.999999,180 v -5 c 0,0 0,-5 5,-5 C 75,170 75,175 75,175 v 5 5 c 0,0 0,5 -5.000001,5 -5,0 -5,-5 -5,-5 v -5"
       id="path1450"
       inkscape:export-filename="C:\Users\kduclos\Downloads\CV_2-master\CV_2-master\img\logo_work.png"
       inkscape:export-xdpi="90"
       inkscape:export-ydpi="90" />
    <path
       style="fill:#ffffff;stroke:#000000;stroke-width:1.265;stroke-linecap:butt;stroke-linejoin:miter;stroke-opacity:1;stroke-miterlimit:4;stroke-dasharray:none"
       d="m 44.999999,150 v -10 c 0,0 0,-5 5.000001,-5 5,0 39.999999,0 39.999999,0 0,0 5,0 5,5 0,5 0,10 0,10 h -5 v -5 c 0,0 0,-5 -5.000001,-5 -5,0 -29.999998,0 -29.999998,0 0,0 -5,0 -5,5 0,5 0,5 0,5 h -5.000001"
       id="path1485"
       inkscape:export-filename="C:\Users\kduclos\Downloads\CV_2-master\CV_2-master\img\logo_work.png"
       inkscape:export-xdpi="90"
       inkscape:export-ydpi="90" />
  </g>
</svg>
